<svg width="38" height="20" viewBox="0 0 38 20" fill="none" xmlns="http://www.w3.org/2000/svg">
<path d="M37.2026 18.0622C37.1574 17.9707 37.1151 17.8948 37.0759 17.834C36.427 16.7387 35.187 15.3942 33.3566 13.8002L33.3179 13.7637L33.2985 13.7458L33.2789 13.7275H33.2593C32.4286 12.9852 31.9025 12.4861 31.6822 12.2306C31.2791 11.7439 31.1888 11.2512 31.4091 10.752C31.5647 10.3749 32.1494 9.57835 33.1617 8.3614C33.6942 7.71645 34.1159 7.19955 34.4273 6.81011C36.6734 4.01144 37.6471 2.22306 37.3484 1.44425L37.2324 1.26225C37.1544 1.15269 36.9532 1.05245 36.629 0.961035C36.3041 0.869813 35.8888 0.854728 35.3824 0.915521L29.7743 0.95183C29.6834 0.921657 29.5537 0.92447 29.3847 0.961035C29.2159 0.997601 29.1314 1.01595 29.1314 1.01595L29.0338 1.06165L28.9564 1.11657C28.8914 1.15288 28.82 1.21674 28.7421 1.30803C28.6645 1.39899 28.5996 1.50575 28.5478 1.6274C27.9372 3.09967 27.243 4.46851 26.4639 5.73386C25.9836 6.48838 25.5424 7.14227 25.1395 7.69593C24.7372 8.2494 24.3996 8.65718 24.1272 8.91858C23.8544 9.18022 23.6082 9.38984 23.3871 9.54818C23.1663 9.70659 22.9977 9.77352 22.881 9.74904C22.7641 9.72455 22.6539 9.70026 22.5496 9.67597C22.368 9.5664 22.2219 9.41739 22.1117 9.22881C22.0011 9.04023 21.9266 8.80287 21.8877 8.51693C21.849 8.2308 21.826 7.98469 21.8195 7.77776C21.8134 7.57109 21.8162 7.27875 21.8294 6.90159C21.8429 6.52424 21.849 6.26892 21.849 6.13506C21.849 5.67262 21.8586 5.17074 21.8779 4.62929C21.8975 4.08784 21.9134 3.65883 21.9267 3.34278C21.9399 3.02641 21.9461 2.6917 21.9461 2.33883C21.9461 1.98596 21.9232 1.70922 21.8779 1.50837C21.8331 1.30777 21.7644 1.11305 21.6739 0.924278C21.5829 0.735697 21.4496 0.589819 21.2747 0.486259C21.0995 0.382827 20.8817 0.300747 20.6224 0.239761C19.9343 0.0938189 19.0581 0.0148707 17.9933 0.00259691C15.5788 -0.0216949 14.0273 0.124439 13.3393 0.440808C13.0666 0.574476 12.8199 0.757112 12.5994 0.98814C12.3656 1.25592 12.333 1.40206 12.5018 1.4261C13.2808 1.53547 13.8323 1.79712 14.1569 2.21078L14.2739 2.42999C14.3649 2.58814 14.4557 2.86813 14.5466 3.26959C14.6374 3.67104 14.696 4.11513 14.7218 4.60161C14.7866 5.48998 14.7866 6.25044 14.7218 6.88305C14.6568 7.51592 14.5954 8.00859 14.5368 8.36146C14.4782 8.71433 14.3906 9.00027 14.2739 9.21922C14.1569 9.43823 14.0791 9.57209 14.0401 9.62067C14.0011 9.66926 13.9686 9.69988 13.9429 9.71189C13.7741 9.7725 13.5986 9.80337 13.417 9.80337C13.2351 9.80337 13.0145 9.7181 12.7549 9.54767C12.4954 9.37724 12.2261 9.14315 11.9469 8.845C11.6677 8.54678 11.3529 8.13005 11.0023 7.59474C10.6519 7.05942 10.2884 6.42675 9.91187 5.69672L9.60037 5.16729C9.40565 4.82669 9.13965 4.33075 8.8021 3.67993C8.46434 3.02884 8.16581 2.39904 7.90629 1.79066C7.80255 1.53515 7.6467 1.34063 7.43902 1.20677L7.34155 1.15185C7.27675 1.10327 7.17274 1.05168 7.03006 0.996706C6.88717 0.941794 6.73807 0.902415 6.58215 0.878187L1.24652 0.914498C0.701287 0.914498 0.331341 1.03027 0.136547 1.26149L0.0585884 1.37086C0.0196431 1.43178 0 1.52908 0 1.663C0 1.79686 0.0389452 1.96115 0.116904 2.15568C0.895808 3.87145 1.74285 5.52617 2.65803 7.12009C3.57321 8.71402 4.36848 9.99796 5.04337 10.9708C5.7184 11.9443 6.40646 12.8631 7.10754 13.7268C7.80862 14.5907 8.27269 15.1444 8.49974 15.3876C8.72707 15.6313 8.90563 15.8135 9.03543 15.9351L9.52235 16.3731C9.83391 16.6652 10.2914 17.015 10.8951 17.4225C11.4989 17.8303 12.1674 18.2317 12.9009 18.6275C13.6345 19.0226 14.488 19.3451 15.4617 19.5944C16.4354 19.8441 17.383 19.9442 18.3048 19.8959H20.5443C20.9984 19.8591 21.3425 19.7253 21.5764 19.4943L21.6539 19.4028C21.706 19.3302 21.7548 19.2173 21.7998 19.0655C21.8453 18.9134 21.868 18.7459 21.868 18.5636C21.8547 18.0405 21.8972 17.5691 21.9943 17.1493C22.0914 16.7297 22.202 16.4134 22.3257 16.2003C22.4494 15.9874 22.5889 15.8078 22.7442 15.6622C22.8999 15.5162 23.0108 15.4278 23.0758 15.3974C23.1405 15.3668 23.1921 15.346 23.2311 15.3335C23.5426 15.2362 23.9093 15.3305 24.3316 15.6167C24.7536 15.9026 25.1494 16.2557 25.5196 16.6753C25.8896 17.0953 26.3342 17.5665 26.8534 18.0896C27.3729 18.6129 27.8271 19.0018 28.2165 19.2577L28.6058 19.4767C28.8658 19.6229 29.2033 19.7567 29.6188 19.8784C30.0336 20 30.397 20.0304 30.709 19.9696L35.6939 19.8967C36.187 19.8967 36.5707 19.8202 36.8428 19.6684C37.1155 19.5163 37.2775 19.3488 37.3297 19.1665C37.3818 18.9841 37.3846 18.7771 37.3396 18.5457C37.2934 18.3148 37.2479 18.1534 37.2026 18.0622Z" fill="white"/>
</svg>
