<svg width="15" height="21" viewBox="0 0 15 21" fill="none" xmlns="http://www.w3.org/2000/svg">
<path d="M7.42241 4.60214C5.94244 4.60214 4.73782 5.80676 4.73782 7.28673C4.73782 8.76671 5.94244 9.97132 7.42241 9.97132C8.90239 9.97132 10.107 8.76671 10.107 7.28673C10.107 5.80676 8.90239 4.60214 7.42241 4.60214ZM7.42241 9.20429C6.36507 9.20429 5.50485 8.34407 5.50485 7.28673C5.50485 6.22939 6.36507 5.36917 7.42241 5.36917C8.47976 5.36917 9.33997 6.22939 9.33997 7.28673C9.33997 8.34407 8.47976 9.20429 7.42241 9.20429Z" fill="white"/>
<path d="M12.5552 2.15419C11.1661 0.765108 9.31914 0 7.35479 0C5.39006 0 3.54344 0.765108 2.15436 2.15419C-0.416323 4.72449 -0.735789 9.56059 1.4625 12.4906L7.35479 21L13.2383 12.5025C15.4454 9.56059 15.1259 4.72449 12.5552 2.15419ZM12.6162 12.0542L7.35479 19.6523L2.08495 12.0423C0.0910643 9.38379 0.376781 5.01635 2.69703 2.69648C3.94115 1.45236 5.59523 0.767025 7.35479 0.767025C9.11434 0.767025 10.7684 1.45236 12.0129 2.69648C14.3332 5.01635 14.6189 9.38379 12.6162 12.0542Z" fill="white"/>
</svg>
